<svg width="58" height="56" viewBox="0 0 58 56" fill="none" xmlns="http://www.w3.org/2000/svg">
<path fill-rule="evenodd" clip-rule="evenodd" d="M24.9303 7.80416C24.47 7.97916 24.2398 8.22913 24.291 8.50412C24.3677 8.92911 14.9818 21.3287 12.5778 28.8534C11.8361 31.2034 13.0382 31.5284 18.5112 30.5034C21.8358 29.8784 21.7079 29.2285 19.5085 35.2783C17.8718 39.7281 16.6698 43.453 16.1072 45.7279C15.3399 48.7278 16.9511 50.3027 20.9407 46.2279C22.6541 44.4779 26.5415 40.5531 35.646 30.4034C43.3695 21.8037 43.3438 22.0287 37.2571 21.8037L33.4977 21.6537C35.2624 19.8288 41.8604 12.879 43.8809 11.254C45.9012 9.6041 46.5407 8.92913 43.8298 8.55414C40.6842 8.10415 30.0452 7.92916 26.9251 7.65417C26.209 7.57918 25.314 7.65417 24.9303 7.80416ZM40.0958 10.3291L38.7659 11.404C35.518 14.0039 29.0989 21.4787 29.0989 22.6286C29.0989 23.8786 31.2472 23.7536 36.7968 23.7536C28.613 33.0283 22.2194 40.2531 22.0659 40.2531C22.0148 40.2531 22.6031 38.6031 23.3958 36.5532C26.3625 28.7785 26.5159 27.3285 24.4188 27.5785C20.7873 28.0035 17.2324 28.4785 16.7465 28.6284C16.3118 28.7534 16.593 28.0785 18.2297 25.0786C21.1453 19.6288 22.3217 18.0538 27.4366 9.7291C37.1804 10.1541 37.0781 10.1541 40.0958 10.3291Z" fill="#006B99"/>
</svg>
